<mxfile host="app.diagrams.net" modified="2022-03-17T00:25:28.990Z" agent="5.0 (Windows NT 10.0; Win64; x64) AppleWebKit/537.36 (KHTML, like Gecko) Chrome/99.0.4844.51 Safari/537.36" etag="dBt81lH0O3Ie9lX-aXpw" version="17.1.3" type="github">
  <diagram id="lCcjsu2HdgxvaBvsYxkH" name="Page-1">
    <mxGraphModel dx="868" dy="482" grid="1" gridSize="10" guides="1" tooltips="1" connect="1" arrows="1" fold="1" page="1" pageScale="1" pageWidth="827" pageHeight="1169" math="0" shadow="0">
      <root>
        <mxCell id="0" />
        <mxCell id="1" parent="0" />
        <mxCell id="VAGSRv4LbogOku7EHdaU-10" style="edgeStyle=orthogonalEdgeStyle;rounded=0;orthogonalLoop=1;jettySize=auto;html=1;exitX=0.5;exitY=1;exitDx=0;exitDy=0;entryX=0.5;entryY=0;entryDx=0;entryDy=0;" edge="1" parent="1" source="VAGSRv4LbogOku7EHdaU-1" target="VAGSRv4LbogOku7EHdaU-7">
          <mxGeometry relative="1" as="geometry" />
        </mxCell>
        <mxCell id="VAGSRv4LbogOku7EHdaU-1" value="INICIO" style="rounded=1;whiteSpace=wrap;html=1;" vertex="1" parent="1">
          <mxGeometry x="125" y="40" width="115" height="60" as="geometry" />
        </mxCell>
        <mxCell id="VAGSRv4LbogOku7EHdaU-3" value="FIM" style="rounded=1;whiteSpace=wrap;html=1;" vertex="1" parent="1">
          <mxGeometry x="390" y="360" width="120" height="60" as="geometry" />
        </mxCell>
        <mxCell id="VAGSRv4LbogOku7EHdaU-13" style="edgeStyle=orthogonalEdgeStyle;rounded=0;orthogonalLoop=1;jettySize=auto;html=1;exitX=1;exitY=0.5;exitDx=0;exitDy=0;entryX=0.5;entryY=0;entryDx=0;entryDy=0;" edge="1" parent="1" source="VAGSRv4LbogOku7EHdaU-5" target="VAGSRv4LbogOku7EHdaU-3">
          <mxGeometry relative="1" as="geometry">
            <mxPoint x="460" y="290" as="targetPoint" />
          </mxGeometry>
        </mxCell>
        <mxCell id="VAGSRv4LbogOku7EHdaU-5" value="4" style="shape=document;whiteSpace=wrap;html=1;boundedLbl=1;" vertex="1" parent="1">
          <mxGeometry x="260" y="250" width="120" height="80" as="geometry" />
        </mxCell>
        <mxCell id="VAGSRv4LbogOku7EHdaU-6" value="É&amp;nbsp;" style="rhombus;whiteSpace=wrap;html=1;" vertex="1" parent="1">
          <mxGeometry x="710" y="270" width="80" height="80" as="geometry" />
        </mxCell>
        <mxCell id="VAGSRv4LbogOku7EHdaU-11" style="edgeStyle=orthogonalEdgeStyle;rounded=0;orthogonalLoop=1;jettySize=auto;html=1;exitX=0.5;exitY=1;exitDx=0;exitDy=0;entryX=0.5;entryY=0;entryDx=0;entryDy=0;" edge="1" parent="1" source="VAGSRv4LbogOku7EHdaU-7" target="VAGSRv4LbogOku7EHdaU-9">
          <mxGeometry relative="1" as="geometry" />
        </mxCell>
        <mxCell id="VAGSRv4LbogOku7EHdaU-7" value="ESCOLHER 2 DOIS NÚMEROS PARA SOMAR" style="shape=parallelogram;perimeter=parallelogramPerimeter;whiteSpace=wrap;html=1;fixedSize=1;" vertex="1" parent="1">
          <mxGeometry x="80" y="140" width="210" height="70" as="geometry" />
        </mxCell>
        <mxCell id="VAGSRv4LbogOku7EHdaU-12" style="edgeStyle=orthogonalEdgeStyle;rounded=0;orthogonalLoop=1;jettySize=auto;html=1;entryX=0;entryY=0.5;entryDx=0;entryDy=0;" edge="1" parent="1" source="VAGSRv4LbogOku7EHdaU-9" target="VAGSRv4LbogOku7EHdaU-5">
          <mxGeometry relative="1" as="geometry" />
        </mxCell>
        <mxCell id="VAGSRv4LbogOku7EHdaU-9" value="2 + 2&amp;nbsp;" style="rounded=0;whiteSpace=wrap;html=1;" vertex="1" parent="1">
          <mxGeometry x="80" y="250" width="120" height="60" as="geometry" />
        </mxCell>
      </root>
    </mxGraphModel>
  </diagram>
</mxfile>
